<svg width="1954" height="246" viewBox="0 0 1954 246" fill="none" xmlns="http://www.w3.org/2000/svg">
<rect width="246" height="246" rx="123" fill="black"/>
<g opacity="0.95">
<path d="M122.008 106.166V56.8076L80.583 125.556L122.008 106.166Z" fill="white"/>
<path d="M122.007 106.165V56.8069L163.433 125.555L122.007 106.165Z" fill="#E9E9E9"/>
<path d="M122.007 149.793V106.165L163.433 125.555L122.007 149.793Z" fill="#E0E0E0"/>
<path d="M122.007 191.219V158.167L163.433 133.047L122.007 191.219Z" fill="#ECECEC"/>
<path d="M122.007 191.66V158.608L80.582 133.488L122.007 191.66Z" fill="white"/>
<path d="M122.007 149.353V106.165L80.582 125.359L122.007 149.353Z" fill="#F4F4F4"/>
<path d="M29.3647 129.081C29.3647 129.081 24.5153 92.7315 58.9863 57.3548C93.4572 21.9782 147.418 31.8819 147.418 31.8819" stroke="white" stroke-width="12"/>
<path d="M157.484 30.4858L134.918 48.4775L134.918 12.494L157.484 30.4858Z" fill="white"/>
<path d="M216.634 116.592C216.634 116.592 221.483 152.941 187.012 188.318C152.541 223.695 98.5801 213.791 98.5801 213.791" stroke="white" stroke-width="12"/>
<path d="M88.5137 215.187L111.08 197.196L111.08 233.179L88.5137 215.187Z" fill="white"/>
</g>
<path d="M356.8 62.8L340.4 60.4V50.4H442.2L445 81.4H433.6L427.8 62L378.2 60.8V117.2L411.6 116.6L414.4 100H425.4V146H414.4L411.6 128.8L378.2 128.2V187.8L434.6 185.8L445.2 160.6L457 164.2L451.2 199H340.2V189.2L356.8 187.2V62.8ZM504.473 201C496.873 201 491.207 199.267 487.473 195.8C483.74 192.333 481.873 186.4 481.873 178V101.2H467.473V92.2C468.14 92.0667 470.007 91.6 473.073 90.8C476.14 90 478.207 89.2667 479.273 88.6C481.407 87.4 483.073 85 484.273 81.4C485.34 78.8667 486.607 74.8 488.073 69.2C489.54 63.6 490.407 60.2667 490.673 59.2H502.473L502.873 88H536.273V101.2H502.873V162.6C502.873 170.2 503.073 175.533 503.473 178.6C504.007 181.667 505.007 183.667 506.473 184.6C508.073 185.533 510.74 186 514.473 186C518.073 186 522.007 185.533 526.273 184.6C530.673 183.667 534.073 182.667 536.473 181.6L539.473 190.6C536.273 193 531.073 195.333 523.873 197.6C516.807 199.867 510.34 201 504.473 201ZM562.519 49.8L545.719 47.6V39L578.319 35.2H578.719L583.119 38.2V84.6L582.319 101.6C586.585 97.7333 592.452 94.0667 599.919 90.6C607.385 87.1333 614.919 85.4 622.519 85.4C630.919 85.4 637.452 87 642.119 90.2C646.785 93.4 650.052 98.3333 651.919 105C653.785 111.533 654.719 120.4 654.719 131.6V187.4L668.719 189.2V199H620.919V189.2L633.919 187.4V131.4C633.919 123.533 633.385 117.4 632.319 113C631.252 108.467 629.252 105.133 626.319 103C623.385 100.733 618.985 99.6 613.119 99.6C608.319 99.6 603.185 100.8 597.719 103.2C592.252 105.6 587.452 108.4 583.319 111.6V187.4L597.119 189.2V199H550.519V189.2L562.519 187.6V49.8ZM732.755 201.2C716.621 201.2 704.288 195.933 695.755 185.4C687.355 174.867 683.155 160.8 683.155 143.2C683.155 131.6 685.355 121.4 689.755 112.6C694.155 103.8 700.288 97 708.155 92.2C716.155 87.4 725.221 85 735.355 85C747.755 85 757.355 88.4667 764.155 95.4C771.088 102.2 774.755 112 775.155 124.8C775.155 132.933 774.688 139.133 773.755 143.4H704.955C705.221 156.6 708.288 167.267 714.155 175.4C720.021 183.4 728.355 187.4 739.155 187.4C744.488 187.4 750.021 186.467 755.755 184.6C761.621 182.6 766.155 180.267 769.355 177.6L773.155 186.4C769.288 190.4 763.555 193.867 755.955 196.8C748.355 199.733 740.621 201.2 732.755 201.2ZM753.155 132.8C753.555 130 753.755 127.133 753.755 124.2C753.621 115.533 751.755 108.733 748.155 103.8C744.688 98.7333 739.155 96.2 731.555 96.2C723.821 96.2 717.621 99 712.955 104.6C708.421 110.2 705.821 119.6 705.155 132.8H753.155ZM792.744 189.2L807.744 188V103.4L793.344 99.8V89L820.944 85.4H821.344L825.744 89V92.6L825.144 108.2H825.744C827.077 105.933 829.477 103 832.944 99.4C836.41 95.8 840.877 92.5333 846.344 89.6C851.81 86.5333 857.744 85 864.144 85C866.81 85 869.01 85.3333 870.744 86V108.4C869.81 107.733 868.277 107.133 866.144 106.6C864.144 105.933 861.877 105.6 859.344 105.6C848.277 105.6 838.01 109 828.544 115.8V187.8L853.944 189.4V199H792.744V189.2ZM933.145 201.2C917.012 201.2 904.679 195.933 896.145 185.4C887.745 174.867 883.545 160.8 883.545 143.2C883.545 131.6 885.745 121.4 890.145 112.6C894.545 103.8 900.679 97 908.545 92.2C916.545 87.4 925.612 85 935.745 85C948.145 85 957.745 88.4667 964.545 95.4C971.479 102.2 975.145 112 975.545 124.8C975.545 132.933 975.079 139.133 974.145 143.4H905.345C905.612 156.6 908.679 167.267 914.545 175.4C920.412 183.4 928.745 187.4 939.545 187.4C944.879 187.4 950.412 186.467 956.145 184.6C962.012 182.6 966.545 180.267 969.745 177.6L973.545 186.4C969.679 190.4 963.945 193.867 956.345 196.8C948.745 199.733 941.012 201.2 933.145 201.2ZM953.545 132.8C953.945 130 954.145 127.133 954.145 124.2C954.012 115.533 952.145 108.733 948.545 103.8C945.079 98.7333 939.545 96.2 931.945 96.2C924.212 96.2 918.012 99 913.345 104.6C908.812 110.2 906.212 119.6 905.545 132.8H953.545ZM1083.73 200.8C1080 200.8 1077.2 200.067 1075.33 198.6C1073.6 197.133 1072.73 194.733 1072.73 191.4V184.6C1068.33 189 1062.8 192.867 1056.13 196.2C1049.6 199.533 1043 201.2 1036.33 201.2C1023.93 201.2 1015.13 197.867 1009.93 191.2C1004.73 184.533 1002.13 173.533 1002.13 158.2V100.2L990.934 97V88.2L1018.93 85.6H1019.13L1022.93 88V156.6C1022.93 164.333 1023.47 170.4 1024.53 174.8C1025.73 179.067 1027.73 182.267 1030.53 184.4C1033.47 186.4 1037.67 187.4 1043.13 187.4C1048.47 187.4 1053.47 186.267 1058.13 184C1062.8 181.733 1066.87 179.067 1070.33 176V100.2L1055.93 97V88.2L1086.33 85.6H1086.53L1091.13 88V188.8H1103.13L1102.93 197.8C1099.2 198.733 1095.93 199.467 1093.13 200C1090.47 200.533 1087.33 200.8 1083.73 200.8ZM1118.9 189.2L1131.1 187.4V103.4L1116.7 99.8V89L1145.3 85.4L1148.9 88L1150.1 96L1149.9 102.4C1154.57 98.1333 1160.9 94.2667 1168.9 90.8C1177.03 87.2 1184.3 85.4 1190.7 85.4C1197.9 85.4 1203.7 86.6 1208.1 89C1212.5 91.4 1215.83 95.1333 1218.1 100.2C1222.37 96.6 1228.3 93.2667 1235.9 90.2C1243.63 87 1250.83 85.4 1257.5 85.4C1265.77 85.4 1272.23 87 1276.9 90.2C1281.57 93.2667 1284.83 98.1333 1286.7 104.8C1288.7 111.333 1289.7 120.133 1289.7 131.2V187.4L1304.1 189.2V199H1256.5V189.2L1268.9 187.4V131.8C1268.9 124.067 1268.3 117.933 1267.1 113.4C1266.03 108.733 1263.9 105.267 1260.7 103C1257.63 100.733 1253.17 99.6 1247.3 99.6C1242.9 99.6 1238.23 100.6 1233.3 102.6C1228.37 104.467 1224.17 106.733 1220.7 109.4C1221.9 114.6 1222.5 122 1222.5 131.6V187.4L1236.7 189.2V199H1188.3V189.2L1201.5 187.4V131.4C1201.5 123.4 1200.97 117.2 1199.9 112.8C1198.97 108.4 1197.1 105.133 1194.3 103C1191.5 100.733 1187.23 99.6 1181.5 99.6C1176.7 99.6 1171.57 100.8 1166.1 103.2C1160.77 105.6 1156.1 108.4 1152.1 111.6V187.4L1165.5 189.2V199H1118.9V189.2ZM1434.59 201.2C1420.19 201.2 1407.72 198 1397.19 191.6C1386.79 185.2 1378.85 176.4 1373.39 165.2C1367.92 153.867 1365.19 141.067 1365.19 126.8C1365.19 110.4 1368.39 96.3333 1374.79 84.6C1381.32 72.8667 1390.32 64 1401.79 58C1413.25 51.8667 1426.32 48.8 1440.99 48.8C1454.45 48.8 1469.99 50.8667 1487.59 55L1485.79 89.6H1471.59L1466.79 65.6C1464.92 64.1333 1461.72 62.7333 1457.19 61.4C1452.79 60.0667 1446.85 59.4 1439.39 59.4C1429.65 59.4 1421.05 61.8 1413.59 66.6C1406.12 71.4 1400.25 78.5333 1395.99 88C1391.85 97.4667 1389.79 108.933 1389.79 122.4C1389.79 134.8 1391.45 146.133 1394.79 156.4C1398.25 166.667 1403.45 174.933 1410.39 181.2C1417.45 187.333 1426.05 190.4 1436.19 190.4C1442.59 190.4 1448.65 189.667 1454.39 188.2C1460.12 186.6 1464.52 184.533 1467.59 182V137.4L1442.39 135.4V123.6H1500.79V135.4L1489.19 137.2V191C1486.25 191.133 1481.39 192.267 1474.59 194.4C1467.65 196.533 1461.12 198.2 1454.99 199.4C1448.85 200.6 1442.05 201.2 1434.59 201.2ZM1524.43 49.8L1507.63 47.6V39L1540.23 35.2H1540.63L1545.03 38.2V84.6L1544.23 101.6C1548.5 97.7333 1554.37 94.0667 1561.83 90.6C1569.3 87.1333 1576.83 85.4 1584.43 85.4C1592.83 85.4 1599.37 87 1604.03 90.2C1608.7 93.4 1611.97 98.3333 1613.83 105C1615.7 111.533 1616.63 120.4 1616.63 131.6V187.4L1630.63 189.2V199H1582.83V189.2L1595.83 187.4V131.4C1595.83 123.533 1595.3 117.4 1594.23 113C1593.17 108.467 1591.17 105.133 1588.23 103C1585.3 100.733 1580.9 99.6 1575.03 99.6C1570.23 99.6 1565.1 100.8 1559.63 103.2C1554.17 105.6 1549.37 108.4 1545.23 111.6V187.4L1559.03 189.2V199H1512.43V189.2L1524.43 187.6V49.8ZM1645.47 143.2C1645.47 131.2 1647.94 120.8 1652.87 112C1657.8 103.2 1664.27 96.5333 1672.27 92C1680.4 87.3333 1689.07 85 1698.27 85C1715.07 85 1727.67 90.3333 1736.07 101C1744.6 111.667 1748.87 125.667 1748.87 143C1748.87 155.133 1746.4 165.6 1741.47 174.4C1736.54 183.2 1730 189.867 1721.87 194.4C1713.87 198.933 1705.27 201.2 1696.07 201.2C1679.27 201.2 1666.6 195.867 1658.07 185.2C1649.67 174.533 1645.47 160.533 1645.47 143.2ZM1697.27 189.8C1706.47 189.8 1713.54 186 1718.47 178.4C1723.4 170.8 1725.87 159.533 1725.87 144.6C1725.87 129.8 1723.6 118.067 1719.07 109.4C1714.54 100.733 1707.27 96.4 1697.27 96.4C1688.07 96.4 1680.94 100.2 1675.87 107.8C1670.94 115.4 1668.47 126.667 1668.47 141.6C1668.47 156.4 1670.8 168.133 1675.47 176.8C1680.14 185.467 1687.4 189.8 1697.27 189.8ZM1785.75 183C1787.08 185 1789.88 186.8 1794.15 188.4C1798.55 190 1803.15 190.8 1807.95 190.8C1815.55 190.8 1821.15 189.333 1824.75 186.4C1828.35 183.467 1830.15 179.4 1830.15 174.2C1830.15 170.6 1829.02 167.467 1826.75 164.8C1824.48 162.133 1821.28 159.8 1817.15 157.8C1813.15 155.667 1807.35 153.133 1799.75 150.2C1789.48 146.333 1781.95 141.733 1777.15 136.4C1772.48 130.933 1770.15 123.8 1770.15 115C1770.15 109.133 1771.88 104 1775.35 99.6C1778.95 95.2 1783.82 91.8 1789.95 89.4C1796.22 86.8667 1803.15 85.6 1810.75 85.6C1816.88 85.6 1822.22 86.0667 1826.75 87C1831.42 87.9333 1835.15 88.8667 1837.95 89.8C1840.75 90.7333 1842.62 91.3333 1843.55 91.6V116.4H1831.35L1827.35 101.6C1826.55 100 1824.42 98.6667 1820.95 97.6C1817.48 96.4 1813.62 95.8 1809.35 95.8C1803.35 95.8 1798.48 97.1333 1794.75 99.8C1791.15 102.467 1789.35 106.067 1789.35 110.6C1789.35 114.6 1790.28 117.933 1792.15 120.6C1794.15 123.133 1796.62 125.2 1799.55 126.8C1802.48 128.4 1806.48 130.267 1811.55 132.4L1815.55 134C1823.02 136.933 1829.08 139.733 1833.75 142.4C1838.42 145.067 1842.28 148.6 1845.35 153C1848.55 157.267 1850.15 162.533 1850.15 168.8C1850.15 178.667 1846.28 186.533 1838.55 192.4C1830.95 198.267 1820.48 201.2 1807.15 201.2C1800.62 201.2 1793.75 200.333 1786.55 198.6C1779.48 196.733 1773.68 194.867 1769.15 193V167.4H1782.15L1785.75 183ZM1902.33 201C1894.73 201 1889.06 199.267 1885.33 195.8C1881.59 192.333 1879.73 186.4 1879.73 178V101.2H1865.33V92.2C1865.99 92.0667 1867.86 91.6 1870.93 90.8C1873.99 90 1876.06 89.2667 1877.13 88.6C1879.26 87.4 1880.93 85 1882.13 81.4C1883.19 78.8667 1884.46 74.8 1885.93 69.2C1887.39 63.6 1888.26 60.2667 1888.52 59.2H1900.33L1900.73 88H1934.13V101.2H1900.73V162.6C1900.73 170.2 1900.93 175.533 1901.33 178.6C1901.86 181.667 1902.86 183.667 1904.33 184.6C1905.93 185.533 1908.59 186 1912.33 186C1915.93 186 1919.86 185.533 1924.13 184.6C1928.53 183.667 1931.93 182.667 1934.33 181.6L1937.33 190.6C1934.13 193 1928.93 195.333 1921.73 197.6C1914.66 199.867 1908.19 201 1902.33 201Z" fill="black"/>
</svg>
