<svg width="152" height="152" viewBox="0 0 152 152" fill="none" xmlns="http://www.w3.org/2000/svg">
<rect width="152" height="152" rx="76" fill="black"/>
<g opacity="0.95">
<path d="M75.3877 65.5982V35.1006L49.7915 77.5794L75.3877 65.5982Z" fill="white"/>
<path d="M75.3872 65.5977V35.1001L100.983 77.5789L75.3872 65.5977Z" fill="#E9E9E9"/>
<path d="M75.3872 92.5553V65.5977L100.983 77.5788L75.3872 92.5553Z" fill="#E0E0E0"/>
<path d="M75.3872 118.152V97.7291L100.983 82.208L75.3872 118.152Z" fill="#ECECEC"/>
<path d="M75.3872 118.424V98.0013L49.791 82.4802L75.3872 118.424Z" fill="white"/>
<path d="M75.3872 92.283V65.5977L49.791 77.4578L75.3872 92.283Z" fill="#F4F4F4"/>
<path d="M18.1445 79.7572C18.1445 79.7572 15.1481 57.2974 36.4472 35.4386C57.7464 13.5799 91.0881 19.6993 91.0881 19.6993" stroke="white" stroke-width="8"/>
<path d="M97.3076 18.8366L83.3644 29.9535L83.3644 7.71978L97.3076 18.8366Z" fill="white"/>
<path d="M133.855 72.0403C133.855 72.0403 136.852 94.5001 115.552 116.359C94.2533 138.218 60.9116 132.098 60.9116 132.098" stroke="white" stroke-width="8"/>
<path d="M54.6919 132.961L68.6351 121.844L68.6351 144.078L54.6919 132.961Z" fill="white"/>
</g>
</svg>
